<?xml version="1.0" encoding="UTF-8"?>
<svg version="1.1" xmlns="http://www.w3.org/2000/svg" width="1024" height="1024">
<path d="M0 0 C1.20769043 0.16628906 2.41538086 0.33257812 3.65966797 0.50390625 C42.93685824 6.03807005 82.3677668 16.87636774 118.33886719 33.75244141 C121.10409328 35.04879969 123.88317061 36.31185892 126.6640625 37.57421875 C154.10168034 50.18873446 180.24911427 66.34103078 204 85 C205.14392753 85.87839095 206.28849758 86.75594557 207.43359375 87.6328125 C213.98115269 92.67613079 220.25722329 97.87651046 226.3046875 103.515625 C228.35398673 105.40454429 230.4259589 107.22161449 232.54296875 109.03125 C237.84848862 113.65893925 242.81502429 118.62898086 247.7902832 123.60498047 C249.42575882 125.23827448 251.06907708 126.8633847 252.71289062 128.48828125 C258.54166697 134.28674885 263.9968447 140.17693318 269.10058594 146.63305664 C270.92426697 148.90562574 272.83157503 151.05177714 274.8125 153.1875 C293.03931039 173.62578249 307.97468049 198.00845902 321 222 C321.45391113 222.82032715 321.90782227 223.6406543 322.37548828 224.48583984 C346.98161178 269.01743211 362.07569236 318.71154479 369 369 C369.24556641 370.70905518 369.24556641 370.70905518 369.49609375 372.45263672 C374.56910793 409.14289737 374.26533269 448.35515014 369 485 C368.75056641 486.81153564 368.75056641 486.81153564 368.49609375 488.65966797 C362.96192995 527.93685824 352.12363226 567.3677668 335.24755859 603.33886719 C333.95120031 606.10409328 332.68814108 608.88317061 331.42578125 611.6640625 C318.81126554 639.10168034 302.65896922 665.24911427 284 689 C283.12160905 690.14392753 282.24405443 691.28849758 281.3671875 692.43359375 C276.32386921 698.98115269 271.12348954 705.25722329 265.484375 711.3046875 C263.59545571 713.35398673 261.77838551 715.4259589 259.96875 717.54296875 C255.34106075 722.84848862 250.37101914 727.81502429 245.39501953 732.7902832 C243.76172552 734.42575882 242.1366153 736.06907708 240.51171875 737.71289062 C234.71325115 743.54166697 228.82306682 748.9968447 222.36694336 754.10058594 C220.09437426 755.92426697 217.94822286 757.83157503 215.8125 759.8125 C195.37421751 778.03931039 170.99154098 792.97468049 147 806 C146.17967285 806.45391113 145.3593457 806.90782227 144.51416016 807.37548828 C99.98256789 831.98161178 50.28845521 847.07569236 0 854 C-1.70905518 854.24556641 -1.70905518 854.24556641 -3.45263672 854.49609375 C-40.14289737 859.56910793 -79.35515014 859.26533269 -116 854 C-117.81153564 853.75056641 -117.81153564 853.75056641 -119.65966797 853.49609375 C-158.93685824 847.96192995 -198.3677668 837.12363226 -234.33886719 820.24755859 C-237.10409328 818.95120031 -239.88317061 817.68814108 -242.6640625 816.42578125 C-270.10168034 803.81126554 -296.24911427 787.65896922 -320 769 C-321.14392753 768.12160905 -322.28849758 767.24405443 -323.43359375 766.3671875 C-329.98115269 761.32386921 -336.25722329 756.12348954 -342.3046875 750.484375 C-344.35398673 748.59545571 -346.4259589 746.77838551 -348.54296875 744.96875 C-353.84848862 740.34106075 -358.81502429 735.37101914 -363.7902832 730.39501953 C-365.42575882 728.76172552 -367.06907708 727.1366153 -368.71289062 725.51171875 C-374.54166697 719.71325115 -379.9968447 713.82306682 -385.10058594 707.36694336 C-386.92426697 705.09437426 -388.83157503 702.94822286 -390.8125 700.8125 C-409.03931039 680.37421751 -423.97468049 655.99154098 -437 632 C-437.6808667 630.76950928 -437.6808667 630.76950928 -438.37548828 629.51416016 C-462.98161178 584.98256789 -478.07569236 535.28845521 -485 485 C-485.16371094 483.86062988 -485.32742188 482.72125977 -485.49609375 481.54736328 C-490.56910793 444.85710263 -490.26533269 405.64484986 -485 369 C-484.83371094 367.79230957 -484.66742188 366.58461914 -484.49609375 365.34033203 C-478.96192995 326.06314176 -468.12363226 286.6322332 -451.24755859 250.66113281 C-449.95120031 247.89590672 -448.68814108 245.11682939 -447.42578125 242.3359375 C-434.81126554 214.89831966 -418.65896922 188.75088573 -400 165 C-399.12160905 163.85607247 -398.24405443 162.71150242 -397.3671875 161.56640625 C-392.32386921 155.01884731 -387.12348954 148.74277671 -381.484375 142.6953125 C-379.59545571 140.64601327 -377.77838551 138.5740411 -375.96875 136.45703125 C-371.34106075 131.15151138 -366.37101914 126.18497571 -361.39501953 121.2097168 C-359.76172552 119.57424118 -358.1366153 117.93092292 -356.51171875 116.28710938 C-350.71325115 110.45833303 -344.82306682 105.0031553 -338.36694336 99.89941406 C-336.09437426 98.07573303 -333.94822286 96.16842497 -331.8125 94.1875 C-311.37421751 75.96068961 -286.99154098 61.02531951 -263 48 C-262.17967285 47.54608887 -261.3593457 47.09217773 -260.51416016 46.62451172 C-215.98256789 22.01838822 -166.28845521 6.92430764 -116 0 C-114.86062988 -0.16371094 -113.72125977 -0.32742187 -112.54736328 -0.49609375 C-75.85710263 -5.56910793 -36.64484986 -5.26533269 0 0 Z " fill="#E2CE89" transform="translate(570,85)"/>
<path d="M0 0 C1.20769043 0.16628906 2.41538086 0.33257812 3.65966797 0.50390625 C42.93685824 6.03807005 82.3677668 16.87636774 118.33886719 33.75244141 C121.10409328 35.04879969 123.88317061 36.31185892 126.6640625 37.57421875 C154.10168034 50.18873446 180.24911427 66.34103078 204 85 C205.14392753 85.87839095 206.28849758 86.75594557 207.43359375 87.6328125 C213.98115269 92.67613079 220.25722329 97.87651046 226.3046875 103.515625 C228.35398673 105.40454429 230.4259589 107.22161449 232.54296875 109.03125 C237.84848862 113.65893925 242.81502429 118.62898086 247.7902832 123.60498047 C249.42575882 125.23827448 251.06907708 126.8633847 252.71289062 128.48828125 C258.54166697 134.28674885 263.9968447 140.17693318 269.10058594 146.63305664 C270.92426697 148.90562574 272.83157503 151.05177714 274.8125 153.1875 C293.03931039 173.62578249 307.97468049 198.00845902 321 222 C321.45391113 222.82032715 321.90782227 223.6406543 322.37548828 224.48583984 C346.98161178 269.01743211 362.07569236 318.71154479 369 369 C369.24556641 370.70905518 369.24556641 370.70905518 369.49609375 372.45263672 C374.56910793 409.14289737 374.26533269 448.35515014 369 485 C368.75056641 486.81153564 368.75056641 486.81153564 368.49609375 488.65966797 C362.96192995 527.93685824 352.12363226 567.3677668 335.24755859 603.33886719 C333.95120031 606.10409328 332.68814108 608.88317061 331.42578125 611.6640625 C318.81126554 639.10168034 302.65896922 665.24911427 284 689 C283.12160905 690.14392753 282.24405443 691.28849758 281.3671875 692.43359375 C276.32386921 698.98115269 271.12348954 705.25722329 265.484375 711.3046875 C263.59545571 713.35398673 261.77838551 715.4259589 259.96875 717.54296875 C255.34106075 722.84848862 250.37101914 727.81502429 245.39501953 732.7902832 C243.76172552 734.42575882 242.1366153 736.06907708 240.51171875 737.71289062 C234.71325115 743.54166697 228.82306682 748.9968447 222.36694336 754.10058594 C220.09437426 755.92426697 217.94822286 757.83157503 215.8125 759.8125 C195.37421751 778.03931039 170.99154098 792.97468049 147 806 C146.17967285 806.45391113 145.3593457 806.90782227 144.51416016 807.37548828 C99.98256789 831.98161178 50.28845521 847.07569236 0 854 C-1.70905518 854.24556641 -1.70905518 854.24556641 -3.45263672 854.49609375 C-40.14289737 859.56910793 -79.35515014 859.26533269 -116 854 C-117.81153564 853.75056641 -117.81153564 853.75056641 -119.65966797 853.49609375 C-158.93685824 847.96192995 -198.3677668 837.12363226 -234.33886719 820.24755859 C-237.10409328 818.95120031 -239.88317061 817.68814108 -242.6640625 816.42578125 C-270.10168034 803.81126554 -296.24911427 787.65896922 -320 769 C-321.14392753 768.12160905 -322.28849758 767.24405443 -323.43359375 766.3671875 C-329.98115269 761.32386921 -336.25722329 756.12348954 -342.3046875 750.484375 C-344.35398673 748.59545571 -346.4259589 746.77838551 -348.54296875 744.96875 C-353.84848862 740.34106075 -358.81502429 735.37101914 -363.7902832 730.39501953 C-365.42575882 728.76172552 -367.06907708 727.1366153 -368.71289062 725.51171875 C-374.54166697 719.71325115 -379.9968447 713.82306682 -385.10058594 707.36694336 C-386.92426697 705.09437426 -388.83157503 702.94822286 -390.8125 700.8125 C-409.03931039 680.37421751 -423.97468049 655.99154098 -437 632 C-437.6808667 630.76950928 -437.6808667 630.76950928 -438.37548828 629.51416016 C-462.98161178 584.98256789 -478.07569236 535.28845521 -485 485 C-485.16371094 483.86062988 -485.32742188 482.72125977 -485.49609375 481.54736328 C-490.56910793 444.85710263 -490.26533269 405.64484986 -485 369 C-484.83371094 367.79230957 -484.66742188 366.58461914 -484.49609375 365.34033203 C-478.96192995 326.06314176 -468.12363226 286.6322332 -451.24755859 250.66113281 C-449.95120031 247.89590672 -448.68814108 245.11682939 -447.42578125 242.3359375 C-434.81126554 214.89831966 -418.65896922 188.75088573 -400 165 C-399.12160905 163.85607247 -398.24405443 162.71150242 -397.3671875 161.56640625 C-392.32386921 155.01884731 -387.12348954 148.74277671 -381.484375 142.6953125 C-379.59545571 140.64601327 -377.77838551 138.5740411 -375.96875 136.45703125 C-371.34106075 131.15151138 -366.37101914 126.18497571 -361.39501953 121.2097168 C-359.76172552 119.57424118 -358.1366153 117.93092292 -356.51171875 116.28710938 C-350.71325115 110.45833303 -344.82306682 105.0031553 -338.36694336 99.89941406 C-336.09437426 98.07573303 -333.94822286 96.16842497 -331.8125 94.1875 C-311.37421751 75.96068961 -286.99154098 61.02531951 -263 48 C-262.17967285 47.54608887 -261.3593457 47.09217773 -260.51416016 46.62451172 C-215.98256789 22.01838822 -166.28845521 6.92430764 -116 0 C-114.86062988 -0.16371094 -113.72125977 -0.32742187 -112.54736328 -0.49609375 C-75.85710263 -5.56910793 -36.64484986 -5.26533269 0 0 Z M-179 80 C-179 92.87 -179 105.74 -179 119 C-181.97 119.66 -184.94 120.32 -188 121 C-189.62190937 121.52915692 -191.23156307 122.10091106 -192.8125 122.7421875 C-193.64716797 123.07959961 -194.48183594 123.41701172 -195.34179688 123.76464844 C-196.21900391 124.13106445 -197.09621094 124.49748047 -198 124.875 C-198.94423828 125.26719727 -199.88847656 125.65939453 -200.86132812 126.06347656 C-236.61942439 141.13245819 -269.13022819 160.59436425 -297.73046875 186.91796875 C-299.23374214 188.29704744 -300.75725837 189.65440494 -302.30078125 190.98828125 C-313.61616108 200.82210562 -323.96599366 212.04270896 -333 224 C-333.90702016 225.16577864 -334.81461961 226.33110669 -335.72265625 227.49609375 C-369.41133778 271.10360677 -391.69143148 324.17127259 -398 379 C-398.10296387 379.84143555 -398.20592773 380.68287109 -398.31201172 381.54980469 C-401.9822265 412.77852007 -401.92897357 445.94642441 -397 477 C-396.85014648 477.99386719 -396.70029297 478.98773437 -396.54589844 480.01171875 C-387.76485731 537.65710974 -362.87188931 593.31237959 -324 637 C-322.74703125 638.41925781 -322.74703125 638.41925781 -321.46875 639.8671875 C-310.15960656 652.43668728 -298.36418463 664.61401167 -285 675 C-283.89698193 675.91203972 -282.79690035 676.8276383 -281.69921875 677.74609375 C-267.542015 689.50341031 -252.0210742 699.26400214 -235.84423828 707.99560547 C-234.08085261 708.95596669 -232.33482062 709.94798872 -230.58984375 710.94140625 C-222.55516415 715.42524661 -214.28005992 719.15113743 -205.8125 722.75 C-204.73178223 723.21003418 -203.65106445 723.67006836 -202.53759766 724.14404297 C-191.11800951 729.54162629 -191.11800951 729.54162629 -179 732 C-179 744.54 -179 757.08 -179 770 C-157.88 770 -136.76 770 -115 770 C-115 762.41 -115 754.82 -115 747 C-114.01 747.33 -113.02 747.66 -112 748 C-107.57896998 748.65666208 -103.13234933 749.09820825 -98.6875 749.5625 C-98.03303894 749.6310318 -97.37857788 749.6995636 -96.70428467 749.77017212 C-81.78417417 751.29568607 -66.98555518 751.28695744 -52 751 C-52 757.27 -52 763.54 -52 770 C-30.88 770 -9.76 770 12 770 C12 761.75 12 753.5 12 745 C15.63 744.67 19.26 744.34 23 744 C59.72685303 738.8464934 96.82979035 726.705862 130.46826172 711.16455078 C132.88653214 710.05219303 135.3174316 708.97410828 137.75390625 707.90234375 C155.75088916 699.84667761 172.89909045 689.35551266 189 678 C189.7363837 677.54720623 190.4727674 677.09441247 191.23146576 676.62789768 C196.00872836 673.47759259 196.00872836 673.47759259 198.82873356 668.6751138 C199.13450822 665.89437063 199.15743489 663.23619149 199.08229065 660.43946838 C199.08998047 659.38809801 199.0976703 658.33672763 199.10559314 657.25349754 C199.12040003 653.73602748 199.07095932 650.22243516 199.02172852 646.70532227 C199.01918945 644.18215527 199.02061563 641.65898161 199.02571106 639.13581848 C199.02775943 633.70662303 199.00226561 628.27867273 198.95157051 622.84973335 C198.87832514 615.00076313 198.85497752 607.15226321 198.84367859 599.30298828 C198.8239965 586.56736618 198.76414543 573.83226383 198.67895508 561.09692383 C198.59630289 548.7281347 198.53272074 536.35948762 198.49438477 523.99047852 C198.49197279 523.21987372 198.48956081 522.44926893 198.48707575 521.65531248 C198.46836018 515.62838658 198.45074813 509.60145759 198.43348467 503.57452738 C198.34863037 474.04920781 198.16755695 444.52518982 198 415 C154.11 415 110.22 415 65 415 C64.67 476.05 64.34 537.1 64 600 C53.73653115 604.8298677 44.13938344 609.31988895 33.5 612.875 C32.41203125 613.25140625 31.3240625 613.6278125 30.203125 614.015625 C24.10970247 616.09092108 18.35075528 617.58872105 12 619 C12 490.96 12 362.92 12 231 C47.5717964 243.704213 80.55301387 258.66555819 107.109375 286.16796875 C107.60719482 286.68351318 108.10501465 287.19905762 108.61791992 287.73022461 C109.98127023 289.16454194 111.32151636 290.62071857 112.66015625 292.078125 C114.75513027 294.19146583 114.75513027 294.19146583 117.01171875 294.0859375 C119.76208563 292.58377249 121.59426652 290.64744517 123.75 288.375 C127.31744516 284.63493653 131.01126479 281.20198136 134.92089844 277.82080078 C138.27684767 274.88178371 141.5087832 271.81429888 144.75 268.75 C150.48814337 263.34763096 156.25935409 257.98740086 162.078125 252.671875 C165.20643985 249.81122345 168.3236772 246.9389025 171.4375 244.0625 C172.24803833 243.31383667 172.24803833 243.31383667 173.07495117 242.55004883 C174.16964892 241.53879388 175.26429396 240.52748188 176.35888672 239.51611328 C177.99020187 238.00905183 179.62195809 236.5024697 181.25390625 234.99609375 C181.79015625 234.50109375 182.32640625 234.00609375 182.87890625 233.49609375 C183.95557906 232.50244149 185.03240087 231.50895066 186.109375 230.515625 C188.90910125 227.9328267 191.70527131 225.34632531 194.49609375 222.75390625 C195.07230469 222.21958984 195.64851562 221.68527344 196.2421875 221.13476562 C197.33316803 220.12296916 198.42309811 219.11003824 199.51171875 218.09570312 C202.91516624 214.94225114 206.41406088 211.94463853 210 209 C205.39825663 202.36844971 200.04134747 196.72915315 194.3125 191.0625 C193.41619873 190.17296631 192.51989746 189.28343262 191.59643555 188.36694336 C185.6439786 182.50740071 179.66993073 177.03478151 173 172 C171.6836419 170.96904698 170.36865529 169.93634153 169.0546875 168.90234375 C160.89907038 162.52282236 152.64044922 156.48294229 143.79541016 151.09472656 C142.57495468 150.35057068 141.35860143 149.59965378 140.14599609 148.84277344 C104.78820046 126.79710223 54.76853049 104 12 104 C12 96.08 12 88.16 12 80 C-9.12 80 -30.24 80 -52 80 C-52 86.27 -52 92.54 -52 99 C-53.8665625 99.03738281 -55.733125 99.07476562 -57.65625 99.11328125 C-76.88357363 99.57569945 -95.87352931 100.99001399 -115 103 C-115 95.41 -115 87.82 -115 80 C-136.12 80 -157.24 80 -179 80 Z " fill="#000000" transform="translate(570,85)"/>
<path d="M0 0 C1.20769043 0.16628906 2.41538086 0.33257812 3.65966797 0.50390625 C42.93685824 6.03807005 82.3677668 16.87636774 118.33886719 33.75244141 C121.10409328 35.04879969 123.88317061 36.31185892 126.6640625 37.57421875 C154.10168034 50.18873446 180.24911427 66.34103078 204 85 C205.14392753 85.87839095 206.28849758 86.75594557 207.43359375 87.6328125 C213.98115269 92.67613079 220.25722329 97.87651046 226.3046875 103.515625 C228.35398673 105.40454429 230.4259589 107.22161449 232.54296875 109.03125 C237.84848862 113.65893925 242.81502429 118.62898086 247.7902832 123.60498047 C249.42575882 125.23827448 251.06907708 126.8633847 252.71289062 128.48828125 C258.54166697 134.28674885 263.9968447 140.17693318 269.10058594 146.63305664 C270.92426697 148.90562574 272.83157503 151.05177714 274.8125 153.1875 C293.03931039 173.62578249 307.97468049 198.00845902 321 222 C321.45391113 222.82032715 321.90782227 223.6406543 322.37548828 224.48583984 C346.98161178 269.01743211 362.07569236 318.71154479 369 369 C369.24556641 370.70905518 369.24556641 370.70905518 369.49609375 372.45263672 C374.56910793 409.14289737 374.26533269 448.35515014 369 485 C368.75056641 486.81153564 368.75056641 486.81153564 368.49609375 488.65966797 C362.96192995 527.93685824 352.12363226 567.3677668 335.24755859 603.33886719 C333.95120031 606.10409328 332.68814108 608.88317061 331.42578125 611.6640625 C318.81126554 639.10168034 302.65896922 665.24911427 284 689 C283.12160905 690.14392753 282.24405443 691.28849758 281.3671875 692.43359375 C276.32386921 698.98115269 271.12348954 705.25722329 265.484375 711.3046875 C263.59545571 713.35398673 261.77838551 715.4259589 259.96875 717.54296875 C255.34106075 722.84848862 250.37101914 727.81502429 245.39501953 732.7902832 C243.76172552 734.42575882 242.1366153 736.06907708 240.51171875 737.71289062 C234.71325115 743.54166697 228.82306682 748.9968447 222.36694336 754.10058594 C220.09437426 755.92426697 217.94822286 757.83157503 215.8125 759.8125 C195.37421751 778.03931039 170.99154098 792.97468049 147 806 C146.17967285 806.45391113 145.3593457 806.90782227 144.51416016 807.37548828 C99.98256789 831.98161178 50.28845521 847.07569236 0 854 C-1.70905518 854.24556641 -1.70905518 854.24556641 -3.45263672 854.49609375 C-40.14289737 859.56910793 -79.35515014 859.26533269 -116 854 C-117.81153564 853.75056641 -117.81153564 853.75056641 -119.65966797 853.49609375 C-158.93685824 847.96192995 -198.3677668 837.12363226 -234.33886719 820.24755859 C-237.10409328 818.95120031 -239.88317061 817.68814108 -242.6640625 816.42578125 C-270.10168034 803.81126554 -296.24911427 787.65896922 -320 769 C-321.14392753 768.12160905 -322.28849758 767.24405443 -323.43359375 766.3671875 C-329.98115269 761.32386921 -336.25722329 756.12348954 -342.3046875 750.484375 C-344.35398673 748.59545571 -346.4259589 746.77838551 -348.54296875 744.96875 C-353.84848862 740.34106075 -358.81502429 735.37101914 -363.7902832 730.39501953 C-365.42575882 728.76172552 -367.06907708 727.1366153 -368.71289062 725.51171875 C-374.54166697 719.71325115 -379.9968447 713.82306682 -385.10058594 707.36694336 C-386.92426697 705.09437426 -388.83157503 702.94822286 -390.8125 700.8125 C-409.03931039 680.37421751 -423.97468049 655.99154098 -437 632 C-437.6808667 630.76950928 -437.6808667 630.76950928 -438.37548828 629.51416016 C-462.98161178 584.98256789 -478.07569236 535.28845521 -485 485 C-485.16371094 483.86062988 -485.32742188 482.72125977 -485.49609375 481.54736328 C-490.56910793 444.85710263 -490.26533269 405.64484986 -485 369 C-484.83371094 367.79230957 -484.66742188 366.58461914 -484.49609375 365.34033203 C-478.96192995 326.06314176 -468.12363226 286.6322332 -451.24755859 250.66113281 C-449.95120031 247.89590672 -448.68814108 245.11682939 -447.42578125 242.3359375 C-434.81126554 214.89831966 -418.65896922 188.75088573 -400 165 C-399.12160905 163.85607247 -398.24405443 162.71150242 -397.3671875 161.56640625 C-392.32386921 155.01884731 -387.12348954 148.74277671 -381.484375 142.6953125 C-379.59545571 140.64601327 -377.77838551 138.5740411 -375.96875 136.45703125 C-371.34106075 131.15151138 -366.37101914 126.18497571 -361.39501953 121.2097168 C-359.76172552 119.57424118 -358.1366153 117.93092292 -356.51171875 116.28710938 C-350.71325115 110.45833303 -344.82306682 105.0031553 -338.36694336 99.89941406 C-336.09437426 98.07573303 -333.94822286 96.16842497 -331.8125 94.1875 C-311.37421751 75.96068961 -286.99154098 61.02531951 -263 48 C-262.17967285 47.54608887 -261.3593457 47.09217773 -260.51416016 46.62451172 C-215.98256789 22.01838822 -166.28845521 6.92430764 -116 0 C-114.86062988 -0.16371094 -113.72125977 -0.32742187 -112.54736328 -0.49609375 C-75.85710263 -5.56910793 -36.64484986 -5.26533269 0 0 Z M-174 54 C-174.81178711 54.24717773 -175.62357422 54.49435547 -176.45996094 54.74902344 C-228.65015056 70.80923797 -278.11638066 99.41699862 -318.19921875 136.4453125 C-320.37545232 138.4303289 -322.57532786 140.36528571 -324.8046875 142.2890625 C-329.18415801 146.11123958 -333.33023743 150.13853252 -337.4375 154.25 C-338.18249756 154.99507813 -338.92749512 155.74015625 -339.69506836 156.5078125 C-344.47777601 161.3401604 -348.91564649 166.25907444 -353.109375 171.61328125 C-354.92387814 173.90390402 -356.83110257 176.04098612 -358.8125 178.1875 C-422.24145851 249.12284413 -450.38727032 347.68447027 -447.76855469 453.4921875 C-446.59665579 472.17153342 -443.60436594 490.65076881 -440 509 C-439.83918945 509.82064941 -439.67837891 510.64129883 -439.51269531 511.48681641 C-426.47987038 575.97484528 -393.02275945 639.06290518 -348.5546875 687.19921875 C-346.56282177 689.38296146 -344.62163703 691.59089275 -342.69140625 693.828125 C-338.98201202 698.07980783 -335.06265289 702.08549167 -331.0625 706.0625 C-330.39798828 706.73087891 -329.73347656 707.39925781 -329.04882812 708.08789062 C-324.53095642 712.59699827 -319.84613658 716.84770609 -315 721 C-313.97907267 721.88921501 -312.95823189 722.77852941 -311.9375 723.66796875 C-239.4404869 785.84958238 -147.03102459 818.17437759 -27.34375 816.4921875 C-10.07470253 815.10183336 7.00868586 812.33762834 24 809 C24.82064941 808.83918945 25.64129883 808.67837891 26.48681641 808.51269531 C90.97484528 795.47987038 154.06290518 762.02275945 202.19921875 717.5546875 C204.38296146 715.56282177 206.59089275 713.62163703 208.828125 711.69140625 C213.07980783 707.98201202 217.08549167 704.06265289 221.0625 700.0625 C221.73087891 699.39798828 222.39925781 698.73347656 223.08789062 698.04882812 C227.59699827 693.53095642 231.84770609 688.84613658 236 684 C236.88921501 682.97907267 237.77852941 681.95823189 238.66796875 680.9375 C291.07030137 619.84206724 323.41460255 542.91059628 330.73413086 462.86010742 C330.90009464 461.07473949 331.08072251 459.29060142 331.28344727 457.5090332 C336.55403492 408.83081542 329.33702471 357.5324486 315 311 C314.75282227 310.18821289 314.50564453 309.37642578 314.25097656 308.54003906 C298.19076203 256.34984944 269.58300138 206.88361934 232.5546875 166.80078125 C230.56282177 164.61703854 228.62163703 162.40910725 226.69140625 160.171875 C222.98201202 155.92019217 219.06265289 151.91450833 215.0625 147.9375 C214.39798828 147.26912109 213.73347656 146.60074219 213.04882812 145.91210938 C208.53095642 141.40300173 203.84613658 137.15229391 199 133 C197.97907267 132.11078499 196.95823189 131.22147059 195.9375 130.33203125 C153.51964844 93.94969846 104.1221225 68.620719 51 52 C50.09701172 51.71398926 49.19402344 51.42797852 48.26367188 51.13330078 C43.21801674 49.55413441 38.14812157 48.20203782 33 47 C31.50339844 46.64711914 31.50339844 46.64711914 29.9765625 46.28710938 C-37.24516339 30.8135769 -108.13486856 33.70641896 -174 54 Z " fill="#E2CE89" transform="translate(570,85)"/>
<path d="M0 0 C0 132.99 0 265.98 0 403 C-44.64 400.12 -44.64 400.12 -63 394 C-63 266.95 -63 139.9 -63 9 C-53.97818214 5.6168183 -53.97818214 5.6168183 -50.51171875 4.90234375 C-49.73280273 4.7415332 -48.95388672 4.58072266 -48.15136719 4.41503906 C-46.93175293 4.17865723 -46.93175293 4.17865723 -45.6875 3.9375 C-44.82157227 3.76831055 -43.95564453 3.59912109 -43.06347656 3.42480469 C-37.14861906 2.31134403 -31.23197717 1.41272815 -25.25 0.75 C-24.20912231 0.62999634 -24.20912231 0.62999634 -23.1472168 0.50756836 C-15.38037893 -0.26013077 -7.90597684 0 0 0 Z " fill="#000000" transform="translate(518,309)"/>
<path d="M0 0 C0 105.6 0 211.2 0 320 C-8.98933902 313.25799574 -8.98933902 313.25799574 -11.6875 310.4375 C-12.25855469 309.84839844 -12.82960938 309.25929688 -13.41796875 308.65234375 C-13.94003906 308.10707031 -14.46210938 307.56179688 -15 307 C-15.825 306.175 -16.65 305.35 -17.5 304.5 C-18.325 303.675 -19.15 302.85 -20 302 C-20.49886719 301.5359375 -20.99773437 301.071875 -21.51171875 300.59375 C-57.02728572 266.81670729 -72.28309716 214.27867588 -73.85961914 166.75830078 C-74.73746346 129.67969796 -68.4293705 93.66338106 -50.90380859 60.71044922 C-50.10827345 59.20490647 -49.34270919 57.68360766 -48.58203125 56.16015625 C-41.94930351 43.22536461 -32.95015536 31.53090373 -23 21 C-21.84935973 19.64991542 -20.7033304 18.29588411 -19.5625 16.9375 C-4.82378296 0 -4.82378296 0 0 0 Z " fill="#000000" transform="translate(391,350)"/>
</svg>
